<mxfile host="app.diagrams.net" modified="2023-09-15T09:47:07.339Z" agent="Mozilla/5.0 (Windows NT 10.0; Win64; x64) AppleWebKit/537.36 (KHTML, like Gecko) Chrome/116.0.0.0 Safari/537.36 Edg/116.0.1938.76" etag="_tILdDexqeoPYdjIHtp5" version="21.7.4" type="github">
  <diagram name="Page-1" id="U7vOPaIjwy40_dqQ5CMy">
    <mxGraphModel dx="1294" dy="609" grid="1" gridSize="10" guides="1" tooltips="1" connect="1" arrows="1" fold="1" page="1" pageScale="1" pageWidth="1654" pageHeight="1169" math="0" shadow="0">
      <root>
        <mxCell id="0" />
        <mxCell id="1" parent="0" />
        <mxCell id="xBmWTqr-cavenFjL_Q4E-1" value="GameController" style="swimlane;fontStyle=1;align=center;verticalAlign=top;childLayout=stackLayout;horizontal=1;startSize=26;horizontalStack=0;resizeParent=1;resizeParentMax=0;resizeLast=0;collapsible=1;marginBottom=0;whiteSpace=wrap;html=1;" vertex="1" parent="1">
          <mxGeometry x="490" y="30" width="340" height="1048" as="geometry" />
        </mxCell>
        <mxCell id="xBmWTqr-cavenFjL_Q4E-2" value="- static readonly Logger: logger" style="text;strokeColor=none;fillColor=none;align=left;verticalAlign=top;spacingLeft=4;spacingRight=4;overflow=hidden;rotatable=0;points=[[0,0.5],[1,0.5]];portConstraint=eastwest;whiteSpace=wrap;html=1;" vertex="1" parent="xBmWTqr-cavenFjL_Q4E-1">
          <mxGeometry y="26" width="340" height="26" as="geometry" />
        </mxCell>
        <mxCell id="xBmWTqr-cavenFjL_Q4E-36" value="-&amp;nbsp;List&amp;lt;PlayerData&amp;gt;: _playerDataList" style="text;strokeColor=none;fillColor=none;align=left;verticalAlign=top;spacingLeft=4;spacingRight=4;overflow=hidden;rotatable=0;points=[[0,0.5],[1,0.5]];portConstraint=eastwest;whiteSpace=wrap;html=1;" vertex="1" parent="xBmWTqr-cavenFjL_Q4E-1">
          <mxGeometry y="52" width="340" height="26" as="geometry" />
        </mxCell>
        <mxCell id="xBmWTqr-cavenFjL_Q4E-34" value="-&amp;nbsp;List&amp;lt;ICard&amp;gt; _discardPileList" style="text;strokeColor=none;fillColor=none;align=left;verticalAlign=top;spacingLeft=4;spacingRight=4;overflow=hidden;rotatable=0;points=[[0,0.5],[1,0.5]];portConstraint=eastwest;whiteSpace=wrap;html=1;" vertex="1" parent="xBmWTqr-cavenFjL_Q4E-1">
          <mxGeometry y="78" width="340" height="26" as="geometry" />
        </mxCell>
        <mxCell id="xBmWTqr-cavenFjL_Q4E-37" value="-&amp;nbsp;bool: _isReversed" style="text;strokeColor=none;fillColor=none;align=left;verticalAlign=top;spacingLeft=4;spacingRight=4;overflow=hidden;rotatable=0;points=[[0,0.5],[1,0.5]];portConstraint=eastwest;whiteSpace=wrap;html=1;" vertex="1" parent="xBmWTqr-cavenFjL_Q4E-1">
          <mxGeometry y="104" width="340" height="26" as="geometry" />
        </mxCell>
        <mxCell id="xBmWTqr-cavenFjL_Q4E-39" value="-&amp;nbsp;int: _currentPlayerIndex" style="text;strokeColor=none;fillColor=none;align=left;verticalAlign=top;spacingLeft=4;spacingRight=4;overflow=hidden;rotatable=0;points=[[0,0.5],[1,0.5]];portConstraint=eastwest;whiteSpace=wrap;html=1;" vertex="1" parent="xBmWTqr-cavenFjL_Q4E-1">
          <mxGeometry y="130" width="340" height="26" as="geometry" />
        </mxCell>
        <mxCell id="xBmWTqr-cavenFjL_Q4E-40" value="-&amp;nbsp;int: _defaultStartingHand" style="text;strokeColor=none;fillColor=none;align=left;verticalAlign=top;spacingLeft=4;spacingRight=4;overflow=hidden;rotatable=0;points=[[0,0.5],[1,0.5]];portConstraint=eastwest;whiteSpace=wrap;html=1;" vertex="1" parent="xBmWTqr-cavenFjL_Q4E-1">
          <mxGeometry y="156" width="340" height="26" as="geometry" />
        </mxCell>
        <mxCell id="xBmWTqr-cavenFjL_Q4E-43" value="-&amp;nbsp;int: _drawTwo" style="text;strokeColor=none;fillColor=none;align=left;verticalAlign=top;spacingLeft=4;spacingRight=4;overflow=hidden;rotatable=0;points=[[0,0.5],[1,0.5]];portConstraint=eastwest;whiteSpace=wrap;html=1;" vertex="1" parent="xBmWTqr-cavenFjL_Q4E-1">
          <mxGeometry y="182" width="340" height="26" as="geometry" />
        </mxCell>
        <mxCell id="xBmWTqr-cavenFjL_Q4E-42" value="-&amp;nbsp;int: _drawFour" style="text;strokeColor=none;fillColor=none;align=left;verticalAlign=top;spacingLeft=4;spacingRight=4;overflow=hidden;rotatable=0;points=[[0,0.5],[1,0.5]];portConstraint=eastwest;whiteSpace=wrap;html=1;" vertex="1" parent="xBmWTqr-cavenFjL_Q4E-1">
          <mxGeometry y="208" width="340" height="26" as="geometry" />
        </mxCell>
        <mxCell id="xBmWTqr-cavenFjL_Q4E-41" value="-&amp;nbsp;bool: _hasDiscarded" style="text;strokeColor=none;fillColor=none;align=left;verticalAlign=top;spacingLeft=4;spacingRight=4;overflow=hidden;rotatable=0;points=[[0,0.5],[1,0.5]];portConstraint=eastwest;whiteSpace=wrap;html=1;" vertex="1" parent="xBmWTqr-cavenFjL_Q4E-1">
          <mxGeometry y="234" width="340" height="26" as="geometry" />
        </mxCell>
        <mxCell id="xBmWTqr-cavenFjL_Q4E-38" value="-&amp;nbsp;int: _remainingCard" style="text;strokeColor=none;fillColor=none;align=left;verticalAlign=top;spacingLeft=4;spacingRight=4;overflow=hidden;rotatable=0;points=[[0,0.5],[1,0.5]];portConstraint=eastwest;whiteSpace=wrap;html=1;" vertex="1" parent="xBmWTqr-cavenFjL_Q4E-1">
          <mxGeometry y="260" width="340" height="26" as="geometry" />
        </mxCell>
        <mxCell id="xBmWTqr-cavenFjL_Q4E-3" value="" style="line;strokeWidth=1;fillColor=none;align=left;verticalAlign=middle;spacingTop=-1;spacingLeft=3;spacingRight=3;rotatable=0;labelPosition=right;points=[];portConstraint=eastwest;strokeColor=inherit;" vertex="1" parent="xBmWTqr-cavenFjL_Q4E-1">
          <mxGeometry y="286" width="340" height="8" as="geometry" />
        </mxCell>
        <mxCell id="xBmWTqr-cavenFjL_Q4E-4" value="+&amp;nbsp;GameController()" style="text;strokeColor=none;fillColor=none;align=left;verticalAlign=top;spacingLeft=4;spacingRight=4;overflow=hidden;rotatable=0;points=[[0,0.5],[1,0.5]];portConstraint=eastwest;whiteSpace=wrap;html=1;" vertex="1" parent="xBmWTqr-cavenFjL_Q4E-1">
          <mxGeometry y="294" width="340" height="26" as="geometry" />
        </mxCell>
        <mxCell id="xBmWTqr-cavenFjL_Q4E-5" value="+ AddPlayer(IPlayer player): PlayerData" style="text;strokeColor=none;fillColor=none;align=left;verticalAlign=top;spacingLeft=4;spacingRight=4;overflow=hidden;rotatable=0;points=[[0,0.5],[1,0.5]];portConstraint=eastwest;whiteSpace=wrap;html=1;" vertex="1" parent="xBmWTqr-cavenFjL_Q4E-1">
          <mxGeometry y="320" width="340" height="26" as="geometry" />
        </mxCell>
        <mxCell id="xBmWTqr-cavenFjL_Q4E-7" value="+ GetPlayerData(IPlayer player): PlayerData" style="text;strokeColor=none;fillColor=none;align=left;verticalAlign=top;spacingLeft=4;spacingRight=4;overflow=hidden;rotatable=0;points=[[0,0.5],[1,0.5]];portConstraint=eastwest;whiteSpace=wrap;html=1;" vertex="1" parent="xBmWTqr-cavenFjL_Q4E-1">
          <mxGeometry y="346" width="340" height="26" as="geometry" />
        </mxCell>
        <mxCell id="xBmWTqr-cavenFjL_Q4E-6" value="+ IsPlayerNameTaken(string playerName): bool" style="text;strokeColor=none;fillColor=none;align=left;verticalAlign=top;spacingLeft=4;spacingRight=4;overflow=hidden;rotatable=0;points=[[0,0.5],[1,0.5]];portConstraint=eastwest;whiteSpace=wrap;html=1;" vertex="1" parent="xBmWTqr-cavenFjL_Q4E-1">
          <mxGeometry y="372" width="340" height="26" as="geometry" />
        </mxCell>
        <mxCell id="xBmWTqr-cavenFjL_Q4E-9" value="+ DealStartingHands(): void" style="text;strokeColor=none;fillColor=none;align=left;verticalAlign=top;spacingLeft=4;spacingRight=4;overflow=hidden;rotatable=0;points=[[0,0.5],[1,0.5]];portConstraint=eastwest;whiteSpace=wrap;html=1;" vertex="1" parent="xBmWTqr-cavenFjL_Q4E-1">
          <mxGeometry y="398" width="340" height="26" as="geometry" />
        </mxCell>
        <mxCell id="xBmWTqr-cavenFjL_Q4E-8" value="+ InitialDiscardPile(): ICard" style="text;strokeColor=none;fillColor=none;align=left;verticalAlign=top;spacingLeft=4;spacingRight=4;overflow=hidden;rotatable=0;points=[[0,0.5],[1,0.5]];portConstraint=eastwest;whiteSpace=wrap;html=1;" vertex="1" parent="xBmWTqr-cavenFjL_Q4E-1">
          <mxGeometry y="424" width="340" height="26" as="geometry" />
        </mxCell>
        <mxCell id="xBmWTqr-cavenFjL_Q4E-10" value="+ DiscardedPile(): List&amp;lt;ICard&amp;gt;" style="text;strokeColor=none;fillColor=none;align=left;verticalAlign=top;spacingLeft=4;spacingRight=4;overflow=hidden;rotatable=0;points=[[0,0.5],[1,0.5]];portConstraint=eastwest;whiteSpace=wrap;html=1;" vertex="1" parent="xBmWTqr-cavenFjL_Q4E-1">
          <mxGeometry y="450" width="340" height="26" as="geometry" />
        </mxCell>
        <mxCell id="xBmWTqr-cavenFjL_Q4E-11" value="+ Players: List&amp;lt;IPlayer&amp;gt;" style="text;strokeColor=none;fillColor=none;align=left;verticalAlign=top;spacingLeft=4;spacingRight=4;overflow=hidden;rotatable=0;points=[[0,0.5],[1,0.5]];portConstraint=eastwest;whiteSpace=wrap;html=1;" vertex="1" parent="xBmWTqr-cavenFjL_Q4E-1">
          <mxGeometry y="476" width="340" height="26" as="geometry" />
        </mxCell>
        <mxCell id="xBmWTqr-cavenFjL_Q4E-13" value="+ HasDiscarded{ get; set;}: bool" style="text;strokeColor=none;fillColor=none;align=left;verticalAlign=top;spacingLeft=4;spacingRight=4;overflow=hidden;rotatable=0;points=[[0,0.5],[1,0.5]];portConstraint=eastwest;whiteSpace=wrap;html=1;" vertex="1" parent="xBmWTqr-cavenFjL_Q4E-1">
          <mxGeometry y="502" width="340" height="26" as="geometry" />
        </mxCell>
        <mxCell id="xBmWTqr-cavenFjL_Q4E-12" value="+ DrawCard(): ICard" style="text;strokeColor=none;fillColor=none;align=left;verticalAlign=top;spacingLeft=4;spacingRight=4;overflow=hidden;rotatable=0;points=[[0,0.5],[1,0.5]];portConstraint=eastwest;whiteSpace=wrap;html=1;" vertex="1" parent="xBmWTqr-cavenFjL_Q4E-1">
          <mxGeometry y="528" width="340" height="26" as="geometry" />
        </mxCell>
        <mxCell id="xBmWTqr-cavenFjL_Q4E-14" value="+ CanDrawCard(): bool" style="text;strokeColor=none;fillColor=none;align=left;verticalAlign=top;spacingLeft=4;spacingRight=4;overflow=hidden;rotatable=0;points=[[0,0.5],[1,0.5]];portConstraint=eastwest;whiteSpace=wrap;html=1;" vertex="1" parent="xBmWTqr-cavenFjL_Q4E-1">
          <mxGeometry y="554" width="340" height="26" as="geometry" />
        </mxCell>
        <mxCell id="xBmWTqr-cavenFjL_Q4E-16" value="- GetMaxCopiesAllowed(CardValue cardValue): int" style="text;strokeColor=none;fillColor=none;align=left;verticalAlign=top;spacingLeft=4;spacingRight=4;overflow=hidden;rotatable=0;points=[[0,0.5],[1,0.5]];portConstraint=eastwest;whiteSpace=wrap;html=1;" vertex="1" parent="xBmWTqr-cavenFjL_Q4E-1">
          <mxGeometry y="580" width="340" height="26" as="geometry" />
        </mxCell>
        <mxCell id="xBmWTqr-cavenFjL_Q4E-18" value="- GenerateCard(): ICard" style="text;strokeColor=none;fillColor=none;align=left;verticalAlign=top;spacingLeft=4;spacingRight=4;overflow=hidden;rotatable=0;points=[[0,0.5],[1,0.5]];portConstraint=eastwest;whiteSpace=wrap;html=1;" vertex="1" parent="xBmWTqr-cavenFjL_Q4E-1">
          <mxGeometry y="606" width="340" height="26" as="geometry" />
        </mxCell>
        <mxCell id="xBmWTqr-cavenFjL_Q4E-17" value="+ IsCardValidToGenerate(ICard card): bool" style="text;strokeColor=none;fillColor=none;align=left;verticalAlign=top;spacingLeft=4;spacingRight=4;overflow=hidden;rotatable=0;points=[[0,0.5],[1,0.5]];portConstraint=eastwest;whiteSpace=wrap;html=1;" vertex="1" parent="xBmWTqr-cavenFjL_Q4E-1">
          <mxGeometry y="632" width="340" height="26" as="geometry" />
        </mxCell>
        <mxCell id="xBmWTqr-cavenFjL_Q4E-19" value="+ HasMatchingCardInHand(IPlayer player): bool" style="text;strokeColor=none;fillColor=none;align=left;verticalAlign=top;spacingLeft=4;spacingRight=4;overflow=hidden;rotatable=0;points=[[0,0.5],[1,0.5]];portConstraint=eastwest;whiteSpace=wrap;html=1;" vertex="1" parent="xBmWTqr-cavenFjL_Q4E-1">
          <mxGeometry y="658" width="340" height="26" as="geometry" />
        </mxCell>
        <mxCell id="xBmWTqr-cavenFjL_Q4E-20" value="+ IsActionCard(ICard card): bool" style="text;strokeColor=none;fillColor=none;align=left;verticalAlign=top;spacingLeft=4;spacingRight=4;overflow=hidden;rotatable=0;points=[[0,0.5],[1,0.5]];portConstraint=eastwest;whiteSpace=wrap;html=1;" vertex="1" parent="xBmWTqr-cavenFjL_Q4E-1">
          <mxGeometry y="684" width="340" height="26" as="geometry" />
        </mxCell>
        <mxCell id="xBmWTqr-cavenFjL_Q4E-21" value="+ IsWildCard(ICard card): bool" style="text;strokeColor=none;fillColor=none;align=left;verticalAlign=top;spacingLeft=4;spacingRight=4;overflow=hidden;rotatable=0;points=[[0,0.5],[1,0.5]];portConstraint=eastwest;whiteSpace=wrap;html=1;" vertex="1" parent="xBmWTqr-cavenFjL_Q4E-1">
          <mxGeometry y="710" width="340" height="26" as="geometry" />
        </mxCell>
        <mxCell id="xBmWTqr-cavenFjL_Q4E-22" value="- HandleActionCard(ICard card, int choice): void" style="text;strokeColor=none;fillColor=none;align=left;verticalAlign=top;spacingLeft=4;spacingRight=4;overflow=hidden;rotatable=0;points=[[0,0.5],[1,0.5]];portConstraint=eastwest;whiteSpace=wrap;html=1;" vertex="1" parent="xBmWTqr-cavenFjL_Q4E-1">
          <mxGeometry y="736" width="340" height="26" as="geometry" />
        </mxCell>
        <mxCell id="xBmWTqr-cavenFjL_Q4E-24" value="+ ChangeWildCardColor(ICard card, int choice): CardColor" style="text;strokeColor=none;fillColor=none;align=left;verticalAlign=top;spacingLeft=4;spacingRight=4;overflow=hidden;rotatable=0;points=[[0,0.5],[1,0.5]];portConstraint=eastwest;whiteSpace=wrap;html=1;" vertex="1" parent="xBmWTqr-cavenFjL_Q4E-1">
          <mxGeometry y="762" width="340" height="26" as="geometry" />
        </mxCell>
        <mxCell id="xBmWTqr-cavenFjL_Q4E-25" value="+ GetNextPlayer(): IPlayer" style="text;strokeColor=none;fillColor=none;align=left;verticalAlign=top;spacingLeft=4;spacingRight=4;overflow=hidden;rotatable=0;points=[[0,0.5],[1,0.5]];portConstraint=eastwest;whiteSpace=wrap;html=1;" vertex="1" parent="xBmWTqr-cavenFjL_Q4E-1">
          <mxGeometry y="788" width="340" height="26" as="geometry" />
        </mxCell>
        <mxCell id="xBmWTqr-cavenFjL_Q4E-23" value="+ GetPlayerTurn(): IPlayer" style="text;strokeColor=none;fillColor=none;align=left;verticalAlign=top;spacingLeft=4;spacingRight=4;overflow=hidden;rotatable=0;points=[[0,0.5],[1,0.5]];portConstraint=eastwest;whiteSpace=wrap;html=1;" vertex="1" parent="xBmWTqr-cavenFjL_Q4E-1">
          <mxGeometry y="814" width="340" height="26" as="geometry" />
        </mxCell>
        <mxCell id="xBmWTqr-cavenFjL_Q4E-26" value="+ NextPlayerTurn(): IPlayer" style="text;strokeColor=none;fillColor=none;align=left;verticalAlign=top;spacingLeft=4;spacingRight=4;overflow=hidden;rotatable=0;points=[[0,0.5],[1,0.5]];portConstraint=eastwest;whiteSpace=wrap;html=1;" vertex="1" parent="xBmWTqr-cavenFjL_Q4E-1">
          <mxGeometry y="840" width="340" height="26" as="geometry" />
        </mxCell>
        <mxCell id="xBmWTqr-cavenFjL_Q4E-27" value="- SkipNextPlayer(): IPlayer" style="text;strokeColor=none;fillColor=none;align=left;verticalAlign=top;spacingLeft=4;spacingRight=4;overflow=hidden;rotatable=0;points=[[0,0.5],[1,0.5]];portConstraint=eastwest;whiteSpace=wrap;html=1;" vertex="1" parent="xBmWTqr-cavenFjL_Q4E-1">
          <mxGeometry y="866" width="340" height="26" as="geometry" />
        </mxCell>
        <mxCell id="xBmWTqr-cavenFjL_Q4E-28" value="-&amp;nbsp;DrawTwoCardsNextPlayer(): void" style="text;strokeColor=none;fillColor=none;align=left;verticalAlign=top;spacingLeft=4;spacingRight=4;overflow=hidden;rotatable=0;points=[[0,0.5],[1,0.5]];portConstraint=eastwest;whiteSpace=wrap;html=1;" vertex="1" parent="xBmWTqr-cavenFjL_Q4E-1">
          <mxGeometry y="892" width="340" height="26" as="geometry" />
        </mxCell>
        <mxCell id="xBmWTqr-cavenFjL_Q4E-29" value="-&amp;nbsp;DrawFourCardsNextPlayer(): void" style="text;strokeColor=none;fillColor=none;align=left;verticalAlign=top;spacingLeft=4;spacingRight=4;overflow=hidden;rotatable=0;points=[[0,0.5],[1,0.5]];portConstraint=eastwest;whiteSpace=wrap;html=1;" vertex="1" parent="xBmWTqr-cavenFjL_Q4E-1">
          <mxGeometry y="918" width="340" height="26" as="geometry" />
        </mxCell>
        <mxCell id="xBmWTqr-cavenFjL_Q4E-31" value="-&amp;nbsp;IsValidPlayer(IPlayer player): bool" style="text;strokeColor=none;fillColor=none;align=left;verticalAlign=top;spacingLeft=4;spacingRight=4;overflow=hidden;rotatable=0;points=[[0,0.5],[1,0.5]];portConstraint=eastwest;whiteSpace=wrap;html=1;" vertex="1" parent="xBmWTqr-cavenFjL_Q4E-1">
          <mxGeometry y="944" width="340" height="26" as="geometry" />
        </mxCell>
        <mxCell id="xBmWTqr-cavenFjL_Q4E-32" value="+&amp;nbsp;IsGameOver(): bool" style="text;strokeColor=none;fillColor=none;align=left;verticalAlign=top;spacingLeft=4;spacingRight=4;overflow=hidden;rotatable=0;points=[[0,0.5],[1,0.5]];portConstraint=eastwest;whiteSpace=wrap;html=1;" vertex="1" parent="xBmWTqr-cavenFjL_Q4E-1">
          <mxGeometry y="970" width="340" height="26" as="geometry" />
        </mxCell>
        <mxCell id="xBmWTqr-cavenFjL_Q4E-33" value="+&amp;nbsp;DrawCardToPlayerHand(IPlayer player): ICard" style="text;strokeColor=none;fillColor=none;align=left;verticalAlign=top;spacingLeft=4;spacingRight=4;overflow=hidden;rotatable=0;points=[[0,0.5],[1,0.5]];portConstraint=eastwest;whiteSpace=wrap;html=1;" vertex="1" parent="xBmWTqr-cavenFjL_Q4E-1">
          <mxGeometry y="996" width="340" height="26" as="geometry" />
        </mxCell>
        <mxCell id="xBmWTqr-cavenFjL_Q4E-30" value="+&amp;nbsp;DiscardCard(IPlayer player, ICard card, int choice): bool" style="text;strokeColor=none;fillColor=none;align=left;verticalAlign=top;spacingLeft=4;spacingRight=4;overflow=hidden;rotatable=0;points=[[0,0.5],[1,0.5]];portConstraint=eastwest;whiteSpace=wrap;html=1;" vertex="1" parent="xBmWTqr-cavenFjL_Q4E-1">
          <mxGeometry y="1022" width="340" height="26" as="geometry" />
        </mxCell>
        <mxCell id="xBmWTqr-cavenFjL_Q4E-44" value="&amp;lt;Enum&amp;gt;&lt;br&gt;CardColor" style="swimlane;fontStyle=1;align=center;verticalAlign=top;childLayout=stackLayout;horizontal=1;startSize=40;horizontalStack=0;resizeParent=1;resizeParentMax=0;resizeLast=0;collapsible=1;marginBottom=0;whiteSpace=wrap;html=1;" vertex="1" parent="1">
          <mxGeometry x="20" y="220" width="160" height="170" as="geometry" />
        </mxCell>
        <mxCell id="xBmWTqr-cavenFjL_Q4E-45" value="Red" style="text;strokeColor=none;fillColor=none;align=left;verticalAlign=top;spacingLeft=4;spacingRight=4;overflow=hidden;rotatable=0;points=[[0,0.5],[1,0.5]];portConstraint=eastwest;whiteSpace=wrap;html=1;" vertex="1" parent="xBmWTqr-cavenFjL_Q4E-44">
          <mxGeometry y="40" width="160" height="26" as="geometry" />
        </mxCell>
        <mxCell id="xBmWTqr-cavenFjL_Q4E-52" value="Blue" style="text;strokeColor=none;fillColor=none;align=left;verticalAlign=top;spacingLeft=4;spacingRight=4;overflow=hidden;rotatable=0;points=[[0,0.5],[1,0.5]];portConstraint=eastwest;whiteSpace=wrap;html=1;" vertex="1" parent="xBmWTqr-cavenFjL_Q4E-44">
          <mxGeometry y="66" width="160" height="26" as="geometry" />
        </mxCell>
        <mxCell id="xBmWTqr-cavenFjL_Q4E-47" value="Green" style="text;strokeColor=none;fillColor=none;align=left;verticalAlign=top;spacingLeft=4;spacingRight=4;overflow=hidden;rotatable=0;points=[[0,0.5],[1,0.5]];portConstraint=eastwest;whiteSpace=wrap;html=1;" vertex="1" parent="xBmWTqr-cavenFjL_Q4E-44">
          <mxGeometry y="92" width="160" height="26" as="geometry" />
        </mxCell>
        <mxCell id="xBmWTqr-cavenFjL_Q4E-53" value="Yellow" style="text;strokeColor=none;fillColor=none;align=left;verticalAlign=top;spacingLeft=4;spacingRight=4;overflow=hidden;rotatable=0;points=[[0,0.5],[1,0.5]];portConstraint=eastwest;whiteSpace=wrap;html=1;" vertex="1" parent="xBmWTqr-cavenFjL_Q4E-44">
          <mxGeometry y="118" width="160" height="26" as="geometry" />
        </mxCell>
        <mxCell id="xBmWTqr-cavenFjL_Q4E-54" value="Blank" style="text;strokeColor=none;fillColor=none;align=left;verticalAlign=top;spacingLeft=4;spacingRight=4;overflow=hidden;rotatable=0;points=[[0,0.5],[1,0.5]];portConstraint=eastwest;whiteSpace=wrap;html=1;" vertex="1" parent="xBmWTqr-cavenFjL_Q4E-44">
          <mxGeometry y="144" width="160" height="26" as="geometry" />
        </mxCell>
        <mxCell id="xBmWTqr-cavenFjL_Q4E-48" value="&amp;lt;Enum&amp;gt;&lt;br&gt;CardValue" style="swimlane;fontStyle=1;align=center;verticalAlign=top;childLayout=stackLayout;horizontal=1;startSize=40;horizontalStack=0;resizeParent=1;resizeParentMax=0;resizeLast=0;collapsible=1;marginBottom=0;whiteSpace=wrap;html=1;" vertex="1" parent="1">
          <mxGeometry x="210" y="220" width="160" height="430" as="geometry" />
        </mxCell>
        <mxCell id="xBmWTqr-cavenFjL_Q4E-49" value="Zero" style="text;strokeColor=none;fillColor=none;align=left;verticalAlign=top;spacingLeft=4;spacingRight=4;overflow=hidden;rotatable=0;points=[[0,0.5],[1,0.5]];portConstraint=eastwest;whiteSpace=wrap;html=1;" vertex="1" parent="xBmWTqr-cavenFjL_Q4E-48">
          <mxGeometry y="40" width="160" height="26" as="geometry" />
        </mxCell>
        <mxCell id="xBmWTqr-cavenFjL_Q4E-51" value="One" style="text;strokeColor=none;fillColor=none;align=left;verticalAlign=top;spacingLeft=4;spacingRight=4;overflow=hidden;rotatable=0;points=[[0,0.5],[1,0.5]];portConstraint=eastwest;whiteSpace=wrap;html=1;" vertex="1" parent="xBmWTqr-cavenFjL_Q4E-48">
          <mxGeometry y="66" width="160" height="26" as="geometry" />
        </mxCell>
        <mxCell id="xBmWTqr-cavenFjL_Q4E-56" value="Two" style="text;strokeColor=none;fillColor=none;align=left;verticalAlign=top;spacingLeft=4;spacingRight=4;overflow=hidden;rotatable=0;points=[[0,0.5],[1,0.5]];portConstraint=eastwest;whiteSpace=wrap;html=1;" vertex="1" parent="xBmWTqr-cavenFjL_Q4E-48">
          <mxGeometry y="92" width="160" height="26" as="geometry" />
        </mxCell>
        <mxCell id="xBmWTqr-cavenFjL_Q4E-55" value="Three" style="text;strokeColor=none;fillColor=none;align=left;verticalAlign=top;spacingLeft=4;spacingRight=4;overflow=hidden;rotatable=0;points=[[0,0.5],[1,0.5]];portConstraint=eastwest;whiteSpace=wrap;html=1;" vertex="1" parent="xBmWTqr-cavenFjL_Q4E-48">
          <mxGeometry y="118" width="160" height="26" as="geometry" />
        </mxCell>
        <mxCell id="xBmWTqr-cavenFjL_Q4E-58" value="Four" style="text;strokeColor=none;fillColor=none;align=left;verticalAlign=top;spacingLeft=4;spacingRight=4;overflow=hidden;rotatable=0;points=[[0,0.5],[1,0.5]];portConstraint=eastwest;whiteSpace=wrap;html=1;" vertex="1" parent="xBmWTqr-cavenFjL_Q4E-48">
          <mxGeometry y="144" width="160" height="26" as="geometry" />
        </mxCell>
        <mxCell id="xBmWTqr-cavenFjL_Q4E-61" value="Five" style="text;strokeColor=none;fillColor=none;align=left;verticalAlign=top;spacingLeft=4;spacingRight=4;overflow=hidden;rotatable=0;points=[[0,0.5],[1,0.5]];portConstraint=eastwest;whiteSpace=wrap;html=1;" vertex="1" parent="xBmWTqr-cavenFjL_Q4E-48">
          <mxGeometry y="170" width="160" height="26" as="geometry" />
        </mxCell>
        <mxCell id="xBmWTqr-cavenFjL_Q4E-64" value="Six" style="text;strokeColor=none;fillColor=none;align=left;verticalAlign=top;spacingLeft=4;spacingRight=4;overflow=hidden;rotatable=0;points=[[0,0.5],[1,0.5]];portConstraint=eastwest;whiteSpace=wrap;html=1;" vertex="1" parent="xBmWTqr-cavenFjL_Q4E-48">
          <mxGeometry y="196" width="160" height="26" as="geometry" />
        </mxCell>
        <mxCell id="xBmWTqr-cavenFjL_Q4E-68" value="Seven" style="text;strokeColor=none;fillColor=none;align=left;verticalAlign=top;spacingLeft=4;spacingRight=4;overflow=hidden;rotatable=0;points=[[0,0.5],[1,0.5]];portConstraint=eastwest;whiteSpace=wrap;html=1;" vertex="1" parent="xBmWTqr-cavenFjL_Q4E-48">
          <mxGeometry y="222" width="160" height="26" as="geometry" />
        </mxCell>
        <mxCell id="xBmWTqr-cavenFjL_Q4E-67" value="Eight" style="text;strokeColor=none;fillColor=none;align=left;verticalAlign=top;spacingLeft=4;spacingRight=4;overflow=hidden;rotatable=0;points=[[0,0.5],[1,0.5]];portConstraint=eastwest;whiteSpace=wrap;html=1;" vertex="1" parent="xBmWTqr-cavenFjL_Q4E-48">
          <mxGeometry y="248" width="160" height="26" as="geometry" />
        </mxCell>
        <mxCell id="xBmWTqr-cavenFjL_Q4E-66" value="Nine" style="text;strokeColor=none;fillColor=none;align=left;verticalAlign=top;spacingLeft=4;spacingRight=4;overflow=hidden;rotatable=0;points=[[0,0.5],[1,0.5]];portConstraint=eastwest;whiteSpace=wrap;html=1;" vertex="1" parent="xBmWTqr-cavenFjL_Q4E-48">
          <mxGeometry y="274" width="160" height="26" as="geometry" />
        </mxCell>
        <mxCell id="xBmWTqr-cavenFjL_Q4E-65" value="Skip" style="text;strokeColor=none;fillColor=none;align=left;verticalAlign=top;spacingLeft=4;spacingRight=4;overflow=hidden;rotatable=0;points=[[0,0.5],[1,0.5]];portConstraint=eastwest;whiteSpace=wrap;html=1;" vertex="1" parent="xBmWTqr-cavenFjL_Q4E-48">
          <mxGeometry y="300" width="160" height="26" as="geometry" />
        </mxCell>
        <mxCell id="xBmWTqr-cavenFjL_Q4E-63" value="Reverse" style="text;strokeColor=none;fillColor=none;align=left;verticalAlign=top;spacingLeft=4;spacingRight=4;overflow=hidden;rotatable=0;points=[[0,0.5],[1,0.5]];portConstraint=eastwest;whiteSpace=wrap;html=1;" vertex="1" parent="xBmWTqr-cavenFjL_Q4E-48">
          <mxGeometry y="326" width="160" height="26" as="geometry" />
        </mxCell>
        <mxCell id="xBmWTqr-cavenFjL_Q4E-62" value="DrawTwo" style="text;strokeColor=none;fillColor=none;align=left;verticalAlign=top;spacingLeft=4;spacingRight=4;overflow=hidden;rotatable=0;points=[[0,0.5],[1,0.5]];portConstraint=eastwest;whiteSpace=wrap;html=1;" vertex="1" parent="xBmWTqr-cavenFjL_Q4E-48">
          <mxGeometry y="352" width="160" height="26" as="geometry" />
        </mxCell>
        <mxCell id="xBmWTqr-cavenFjL_Q4E-60" value="Wild" style="text;strokeColor=none;fillColor=none;align=left;verticalAlign=top;spacingLeft=4;spacingRight=4;overflow=hidden;rotatable=0;points=[[0,0.5],[1,0.5]];portConstraint=eastwest;whiteSpace=wrap;html=1;" vertex="1" parent="xBmWTqr-cavenFjL_Q4E-48">
          <mxGeometry y="378" width="160" height="26" as="geometry" />
        </mxCell>
        <mxCell id="xBmWTqr-cavenFjL_Q4E-59" value="WildDrawFour" style="text;strokeColor=none;fillColor=none;align=left;verticalAlign=top;spacingLeft=4;spacingRight=4;overflow=hidden;rotatable=0;points=[[0,0.5],[1,0.5]];portConstraint=eastwest;whiteSpace=wrap;html=1;" vertex="1" parent="xBmWTqr-cavenFjL_Q4E-48">
          <mxGeometry y="404" width="160" height="26" as="geometry" />
        </mxCell>
      </root>
    </mxGraphModel>
  </diagram>
</mxfile>
